<svg xmlns="http://www.w3.org/2000/svg" width="1200" height="630" viewBox="0 0 1200 630" role="img" aria-labelledby="title desc">
  <title id="title">The Quorum</title>
  <desc id="desc">A portable agent skill for structured dissent and sharper decisions.</desc>
  <defs>
    <linearGradient id="panel" x1="0" y1="0" x2="1" y2="1">
      <stop offset="0" stop-color="#123C8C"/>
      <stop offset="1" stop-color="#071B4A"/>
    </linearGradient>
  </defs>
  <rect width="1200" height="630" fill="#EEF3FA"/>
  <circle cx="1092" cy="72" r="118" fill="#D7F6FF"/>
  <circle cx="92" cy="594" r="104" fill="#DFE7FB" opacity="0.9"/>
  <rect x="64" y="54" width="1072" height="522" rx="32" fill="url(#panel)" stroke="#9EE7FF" stroke-width="3"/>

  <text x="106" y="158" fill="#FFFFFF" font-family="Inter, Arial, sans-serif" font-size="61" font-weight="750">THE QUORUM</text>
  <line x1="106" y1="232" x2="1094" y2="232" stroke="#9EE7FF" stroke-width="2" opacity="0.42"/>
  <text x="106" y="296" fill="#9EE7FF" font-family="Inter, Arial, sans-serif" font-size="35" font-weight="750">STRUCTURED DISSENT FOR</text>
  <text x="106" y="340" fill="#9EE7FF" font-family="Inter, Arial, sans-serif" font-size="35" font-weight="750">SHARPER DECISIONS.</text>
  <text x="106" y="398" fill="#D7F6FF" font-family="Inter, Arial, sans-serif" font-size="22">Five lenses. Independent verdicts.</text>
  <text x="106" y="432" fill="#D7F6FF" font-family="Inter, Arial, sans-serif" font-size="22">One calibrated call.</text>
  <rect x="106" y="486" width="988" height="52" rx="26" fill="#9EE7FF"/>
  <text x="600" y="519" fill="#071B4A" font-family="Inter, Arial, sans-serif" font-size="18" font-weight="700" text-anchor="middle" letter-spacing="1.2">CLAUDE + CODEX  •  PORTABLE JUDGMENT SKILL</text>

  <g transform="translate(674 166)">
    <rect x="0" y="0" width="130" height="106" rx="18" fill="#FFFFFF" opacity="0.12" stroke="#9EE7FF" stroke-width="2"/>
    <rect x="160" y="0" width="130" height="106" rx="18" fill="#FFFFFF" opacity="0.18" stroke="#9EE7FF" stroke-width="2"/>
    <rect x="320" y="0" width="130" height="106" rx="18" fill="#FFFFFF" opacity="0.12" stroke="#9EE7FF" stroke-width="2"/>
    <rect x="80" y="138" width="130" height="106" rx="18" fill="#FFFFFF" opacity="0.16" stroke="#9EE7FF" stroke-width="2"/>
    <rect x="240" y="138" width="130" height="106" rx="18" fill="#FFFFFF" opacity="0.22" stroke="#9EE7FF" stroke-width="2"/>
    <circle cx="65" cy="40" r="13" fill="#9EE7FF"/>
    <circle cx="225" cy="40" r="13" fill="#9EE7FF"/>
    <circle cx="385" cy="40" r="13" fill="#9EE7FF"/>
    <circle cx="145" cy="178" r="13" fill="#9EE7FF"/>
    <circle cx="305" cy="178" r="13" fill="#9EE7FF"/>
    <text x="22" y="84" fill="#D7F6FF" font-family="Inter, Arial, sans-serif" font-size="14" font-weight="700">ANALYST</text>
    <text x="183" y="84" fill="#D7F6FF" font-family="Inter, Arial, sans-serif" font-size="14" font-weight="700">SKEPTIC</text>
    <text x="337" y="84" fill="#D7F6FF" font-family="Inter, Arial, sans-serif" font-size="14" font-weight="700">OPERATOR</text>
    <text x="101" y="222" fill="#D7F6FF" font-family="Inter, Arial, sans-serif" font-size="14" font-weight="700">STRATEGIST</text>
    <text x="255" y="222" fill="#D7F6FF" font-family="Inter, Arial, sans-serif" font-size="14" font-weight="700">REFRAMER</text>
    <path d="M130 54 H160 M290 54 H320 M145 138 L145 106 M305 138 L305 106" stroke="#9EE7FF" stroke-width="3" opacity="0.65"/>
  </g>
</svg>
